<?xml version="1.0" encoding="UTF-8" standalone="no"?>
<!DOCTYPE svg PUBLIC "-//W3C//DTD SVG 1.1//EN" "http://www.w3.org/Graphics/SVG/1.1/DTD/svg11.dtd">
<svg width="100%" height="100%" viewBox="0 0 130 207" version="1.1" xmlns="http://www.w3.org/2000/svg" xmlns:xlink="http://www.w3.org/1999/xlink" xml:space="preserve" xmlns:serif="http://www.serif.com/" style="fill-rule:evenodd;clip-rule:evenodd;stroke-linejoin:round;stroke-miterlimit:2;">
    <g transform="matrix(1,0,0,1,-161.667,0)">
        <g transform="matrix(1,0,0,1,-53.3333,0)">
            <path d="M255,39.803C254.34,40.514 253.744,41.295 253.225,42.139L237.225,68.139C235.77,70.503 235,73.224 235,76L235,106.898L218.111,128.854C216.094,131.476 215,134.692 215,138L215,192C215,200.284 221.716,207 230,207L330,207C338.284,207 345,200.284 345,192L345,138C345,134.692 343.906,131.476 341.889,128.854L325,106.898L325,76C325,73.224 324.23,70.503 322.775,68.139L306.775,42.139C306.256,41.295 305.66,40.514 305,39.803L305,32.5C305,28.175 303.133,24.06 299.878,21.211L279.878,3.711C275.448,-0.164 269.161,-1.092 263.802,1.341C258.442,3.773 255,9.114 255,15L255,39.803ZM330,138L310,112L250,112L230,138L230,192L330,192L330,138ZM270,50L266,50L250,76L250,112L310,112L310,76L294,50L290,50L290,32.5L270,15L270,50Z" style="fill:rgb(255,173,39);"/>
        </g>
        <g transform="matrix(1,0,0,1,-53.3333,0)">
            <path d="M330,138L310,112L250,112L230,138L230,192L330,192L330,138Z" style="fill:rgb(48,48,48);"/>
        </g>
        <g transform="matrix(1,0,0,1,-53.3333,0)">
            <path d="M310,76L294,50L266,50L250,76L250,112L310,112L310,76Z" style="fill:rgb(48,48,48);"/>
        </g>
        <g transform="matrix(1,0,0,0.875,-53.3333,6.25)">
            <path d="M290,30L270,10L270,50L290,50L290,30Z" style="fill:rgb(48,48,48);"/>
        </g>
        <g transform="matrix(1,0,0,1,-53.3333,0)">
            <path d="M324,140.343L307,118L303,118L303,186L324,186L324,140.343Z" style="fill:rgb(235,235,235);"/>
        </g>
        <g transform="matrix(1,0,0,1.12,-53.3333,-6.72)">
            <path d="M290.649,56L283,56L283,106L304,106L304,77.672L290.649,56Z" style="fill:rgb(235,235,235);"/>
        </g>
    </g>
</svg>
